<?xml version="1.0" standalone="no"?>
<!-- Creator: fig2dev Version 3.2.6a -->
<!-- CreationDate: 2021-05-16 00:07:40 -->
<!-- Magnification: 1.05 -->
<svg	xmlns="http://www.w3.org/2000/svg"
	xmlns:xlink="http://www.w3.org/1999/xlink"
	width="161pt" height="161pt"
	viewBox="885 -104 2550 2548">
<g fill="none">
<!-- Circle -->
<circle cx="2160" cy="1170" r="1260" fill="#ffbfbf"
	stroke="#000000" stroke-width="15px"/>
<!-- Circle -->
<circle cx="2160" cy="1170" r="1080"
	stroke="#000000" stroke-width="8px" stroke-dasharray="40 40"/>
<!-- Circle -->
<circle cx="2160" cy="1170" r="900" fill="#ffffff"
	stroke="#000000" stroke-width="15px"/>
<!-- Line -->
<defs>
<clipPath id="cp0">
	<path clip-rule="evenodd" d="M 885,-104 H 3435 V 2444 H 885 z
		M 2183,2324 2138,2324 2153,2437 2167,2437z
		M 2138,2176 2183,2176 2167,2063 2153,2063z"/>
</clipPath>
</defs>
<polyline points=" 2160,2070 2160,2430" clip-path="url(#cp0)"
	stroke="#000000" stroke-width="8px"/>
<!-- Forward arrow to point 2160,2430 -->
<polygon points=" 2138,2324 2160,2414 2183,2324 2138,2324"
	stroke="#000000" stroke-width="8px" stroke-miterlimit="8" fill="#000000"/>
<!-- Backward arrow to point 2160,2070 -->
<polygon points=" 2183,2176 2160,2086 2138,2176 2183,2176"
	stroke="#000000" stroke-width="8px" stroke-miterlimit="8" fill="#000000"/>
<!-- Line -->
<defs>
<clipPath id="cp1">
	<path clip-rule="evenodd" d="M 885,-104 H 3435 V 2444 H 885 z
		M 3134,1148 3134,1193 3247,1177 3247,1163z
		M 2266,1193 2266,1148 2153,1163 2153,1177z"/>
</clipPath>
</defs>
<polyline points=" 2160,1170 3240,1170" clip-path="url(#cp1)"
	stroke="#000000" stroke-width="8px"/>
<!-- Forward arrow to point 3240,1170 -->
<polygon points=" 3134,1193 3224,1170 3134,1148 3134,1193"
	stroke="#000000" stroke-width="8px" stroke-miterlimit="8" fill="#000000"/>
<!-- Backward arrow to point 2160,1170 -->
<polygon points=" 2266,1148 2176,1170 2266,1193 2266,1148"
	stroke="#000000" stroke-width="8px" stroke-miterlimit="8" fill="#000000"/>
<!-- Text -->
<text xml:space="preserve" x="2205" y="2205" fill="#000000" font-family="Times" font-style="normal" font-weight="normal" font-size="144" text-anchor="start">w</text>
<!-- Text -->
<text xml:space="preserve" x="2655" y="1125" fill="#000000" font-family="Times" font-style="normal" font-weight="normal" font-size="144" text-anchor="start">r</text>
</g>
</svg>
