<?xml version="1.0" standalone="no"?>
<!-- Creator: fig2dev Version 3.2.6a -->
<!-- CreationDate: 2021-05-17 02:01:01 -->
<!-- Magnification: 1.05 -->
<svg	xmlns="http://www.w3.org/2000/svg"
	xmlns:xlink="http://www.w3.org/1999/xlink"
	width="133pt" height="103pt"
	viewBox="2010 1035 2100 1635">
<g fill="none">
<!-- Arc -->
<path d="M 2160,1530 A 318 318 0 0 0 2520 1170"
	stroke="#000000" stroke-width="8px"/>
<!-- Arc -->
<path d="M 2160,2430 A 1230 1230 0 0 0 3420 1170"
	stroke="#000000" stroke-width="8px"/>
<!-- Line -->
<polyline points=" 2295,2565 2340,2565 2340,2655 2385,2520 2610,2520 2610,2565"
	stroke="#000000" stroke-width="8px"/>
<!-- Line -->
<polyline points=" 3240,2565 3285,2565 3285,2655 3330,2520 3555,2520 3555,2565"
	stroke="#000000" stroke-width="8px"/>
<!-- Line -->
<polyline points=" 3690,2205 3735,2205 3735,2295 3780,2160 4005,2160 4005,2205"
	stroke="#000000" stroke-width="8px"/>
<!-- Line -->
<polyline points=" 3510,1575 3555,1575 3555,1665 3600,1530 3825,1530 3825,1575"
	stroke="#000000" stroke-width="8px"/>
<!-- Line -->
<polyline points=" 3060,1170 3060,2430"
	stroke="#000000" stroke-width="8px" stroke-dasharray="40 40"/>
<!-- Line -->
<polyline points=" 2160,2070 3420,2070"
	stroke="#000000" stroke-width="8px" stroke-dasharray="40 40"/>
<!-- Line -->
<defs>
<clipPath id="cp0">
	<path clip-rule="evenodd" d="M 2010,1035 H 4110 V 2670 H 2010 z
		M 3001,1979 2969,2011 3060,2080 3070,2070z
		M 2219,1261 2251,1229 2160,1160 2150,1170z"/>
</clipPath>
</defs>
<polyline points=" 2160,1170 3060,2070" clip-path="url(#cp0)"
	stroke="#000000" stroke-width="8px"/>
<!-- Forward arrow to point 3060,2070 -->
<polygon points=" 2969,2011 3049,2059 3001,1979 2969,2011"
	stroke="#000000" stroke-width="8px" stroke-miterlimit="8" fill="#000000"/>
<!-- Backward arrow to point 2160,1170 -->
<polygon points=" 2251,1229 2171,1181 2219,1261 2251,1229"
	stroke="#000000" stroke-width="8px" stroke-miterlimit="8" fill="#000000"/>
<!-- Line -->
<defs>
<clipPath id="cp1">
	<path clip-rule="evenodd" d="M 2010,1035 H 4110 V 2670 H 2010 z
		M 3314,1148 3314,1193 3427,1177 3427,1163z
		M 2266,1193 2266,1148 2153,1163 2153,1177z"/>
</clipPath>
</defs>
<polyline points=" 2160,1170 3420,1170" clip-path="url(#cp1)"
	stroke="#000000" stroke-width="8px"/>
<!-- Forward arrow to point 3420,1170 -->
<polygon points=" 3314,1193 3404,1170 3314,1148 3314,1193"
	stroke="#000000" stroke-width="8px" stroke-miterlimit="8" fill="#000000"/>
<!-- Backward arrow to point 2160,1170 -->
<polygon points=" 2266,1148 2176,1170 2266,1193 2266,1148"
	stroke="#000000" stroke-width="8px" stroke-miterlimit="8" fill="#000000"/>
<!-- Line -->
<defs>
<clipPath id="cp2">
	<path clip-rule="evenodd" d="M 2010,1035 H 4110 V 2670 H 2010 z
		M 2954,2408 2954,2453 3067,2437 3067,2423z
		M 2266,2453 2266,2408 2153,2423 2153,2437z"/>
</clipPath>
</defs>
<polyline points=" 2160,2430 3060,2430" clip-path="url(#cp2)"
	stroke="#000000" stroke-width="8px"/>
<!-- Forward arrow to point 3060,2430 -->
<polygon points=" 2954,2453 3044,2430 2954,2408 2954,2453"
	stroke="#000000" stroke-width="8px" stroke-miterlimit="8" fill="#000000"/>
<!-- Backward arrow to point 2160,2430 -->
<polygon points=" 2266,2408 2176,2430 2266,2453 2266,2408"
	stroke="#000000" stroke-width="8px" stroke-miterlimit="8" fill="#000000"/>
<!-- Line -->
<defs>
<clipPath id="cp3">
	<path clip-rule="evenodd" d="M 2010,1035 H 4110 V 2670 H 2010 z
		M 2183,2324 2138,2324 2153,2437 2167,2437z
		M 2138,1276 2183,1276 2167,1163 2153,1163z"/>
</clipPath>
</defs>
<polyline points=" 2160,1170 2160,2430" clip-path="url(#cp3)"
	stroke="#000000" stroke-width="8px"/>
<!-- Forward arrow to point 2160,2430 -->
<polygon points=" 2138,2324 2160,2414 2183,2324 2138,2324"
	stroke="#000000" stroke-width="8px" stroke-miterlimit="8" fill="#000000"/>
<!-- Backward arrow to point 2160,1170 -->
<polygon points=" 2183,1276 2160,1186 2138,1276 2183,1276"
	stroke="#000000" stroke-width="8px" stroke-miterlimit="8" fill="#000000"/>
<!-- Line -->
<defs>
<clipPath id="cp4">
	<path clip-rule="evenodd" d="M 2010,1035 H 4110 V 2670 H 2010 z
		M 3314,2408 3314,2453 3427,2437 3427,2423z
		M 3166,2453 3166,2408 3053,2423 3053,2437z"/>
</clipPath>
</defs>
<polyline points=" 3060,2430 3420,2430" clip-path="url(#cp4)"
	stroke="#000000" stroke-width="8px"/>
<!-- Forward arrow to point 3420,2430 -->
<polygon points=" 3314,2453 3404,2430 3314,2408 3314,2453"
	stroke="#000000" stroke-width="8px" stroke-miterlimit="8" fill="#000000"/>
<!-- Backward arrow to point 3060,2430 -->
<polygon points=" 3166,2408 3076,2430 3166,2453 3166,2408"
	stroke="#000000" stroke-width="8px" stroke-miterlimit="8" fill="#000000"/>
<!-- Line -->
<defs>
<clipPath id="cp5">
	<path clip-rule="evenodd" d="M 2010,1035 H 4110 V 2670 H 2010 z
		M 3443,1964 3398,1964 3413,2077 3427,2077z
		M 3398,1276 3443,1276 3427,1163 3413,1163z"/>
</clipPath>
</defs>
<polyline points=" 3420,1170 3420,2070" clip-path="url(#cp5)"
	stroke="#000000" stroke-width="8px"/>
<!-- Forward arrow to point 3420,2070 -->
<polygon points=" 3398,1964 3420,2054 3443,1964 3398,1964"
	stroke="#000000" stroke-width="8px" stroke-miterlimit="8" fill="#000000"/>
<!-- Backward arrow to point 3420,1170 -->
<polygon points=" 3443,1276 3420,1186 3398,1276 3443,1276"
	stroke="#000000" stroke-width="8px" stroke-miterlimit="8" fill="#000000"/>
<!-- Line -->
<defs>
<clipPath id="cp6">
	<path clip-rule="evenodd" d="M 2010,1035 H 4110 V 2670 H 2010 z
		M 3443,2324 3398,2324 3413,2437 3427,2437z
		M 3398,2176 3443,2176 3427,2063 3413,2063z"/>
</clipPath>
</defs>
<polyline points=" 3420,2070 3420,2430" clip-path="url(#cp6)"
	stroke="#000000" stroke-width="8px"/>
<!-- Forward arrow to point 3420,2430 -->
<polygon points=" 3398,2324 3420,2414 3443,2324 3398,2324"
	stroke="#000000" stroke-width="8px" stroke-miterlimit="8" fill="#000000"/>
<!-- Backward arrow to point 3420,2070 -->
<polygon points=" 3443,2176 3420,2086 3398,2176 3443,2176"
	stroke="#000000" stroke-width="8px" stroke-miterlimit="8" fill="#000000"/>
<!-- Text -->
<text xml:space="preserve" x="2520" y="1395" fill="#000000" font-family="Times,Symbol" font-style="normal" font-weight="normal" font-size="96" text-anchor="start">&#960;&#47;&#52;</text>
<!-- Text -->
<text xml:space="preserve" x="2250" y="1665" fill="#000000" font-family="Times,Symbol" font-style="normal" font-weight="normal" font-size="96" text-anchor="start">&#960;&#47;&#52;</text>
<!-- Text -->
<text xml:space="preserve" x="2700" y="2655" fill="#000000" font-family="Times" font-style="normal" font-weight="normal" font-size="144" text-anchor="end">1/2  r</text>
<!-- Text -->
<text xml:space="preserve" x="3645" y="2655" fill="#000000" font-family="Times" font-style="normal" font-weight="normal" font-size="144" text-anchor="end">1 -   1/2  r</text>
<!-- Text -->
<text xml:space="preserve" x="4095" y="2295" fill="#000000" font-family="Times" font-style="normal" font-weight="normal" font-size="144" text-anchor="end">1 -   1/2  r</text>
<!-- Text -->
<text xml:space="preserve" x="2835" y="1125" fill="#000000" font-family="Times" font-style="normal" font-weight="normal" font-size="108" text-anchor="start">r</text>
<!-- Text -->
<text xml:space="preserve" x="2025" y="1890" fill="#000000" font-family="Times" font-style="normal" font-weight="normal" font-size="108" text-anchor="start">r</text>
<!-- Text -->
<text xml:space="preserve" x="2700" y="1665" fill="#000000" font-family="Times" font-style="normal" font-weight="normal" font-size="108" text-anchor="start">r</text>
<!-- Text -->
<text xml:space="preserve" x="3915" y="1665" fill="#000000" font-family="Times" font-style="normal" font-weight="normal" font-size="144" text-anchor="end">1/2  r</text>
</g>
</svg>
